<svg width="82" height="111" viewBox="0 0 82 111" fill="none" xmlns="http://www.w3.org/2000/svg">
<path d="M53 18H22V91H53V18Z" fill="#31344B"/>
<path d="M17 30C17 27.79 16.1 25.79 14.66 24.34C13.21 22.9 11.21 22 9 22C4.58 22 1 25.58 1 30V73L1.35 75.34C1.35 75.34 1.36 75.37 1.36 75.38C2.83 94.47 20.2 109.75 41.13 109.75C49.45 109.75 57.21 107.33 63.64 103.22" fill="#31344B"/>
<path d="M17 30C17 27.79 16.1 25.79 14.66 24.34C13.21 22.9 11.21 22 9 22C4.58 22 1 25.58 1 30V73L1.35 75.34C1.35 75.34 1.36 75.37 1.36 75.38C2.83 94.47 20.2 109.75 41.13 109.75C49.45 109.75 57.21 107.33 63.64 103.22" stroke="#E6E7EE" stroke-width="2" stroke-linecap="round" stroke-linejoin="round"/>
<path d="M33 16C33 13.79 32.1 11.79 30.66 10.34C29.21 8.9 27.21 8 25 8C20.58 8 17 11.58 17 16V52.67" fill="#31344B"/>
<path d="M33 16C33 13.79 32.1 11.79 30.66 10.34C29.21 8.9 27.21 8 25 8C20.58 8 17 11.58 17 16V52.67" stroke="#E6E7EE" stroke-width="2" stroke-linecap="round" stroke-linejoin="round"/>
<path d="M49 19C49 14.58 52.58 11 57 11C59.21 11 61.21 11.9 62.66 13.34C64.1 14.79 65 16.79 65 19V66.43C60.82 67.32 57.14 69.59 54.49 72.75C53.06 74.43 51.93 76.36 51.15 78.46" fill="#31344B"/>
<path d="M49 19C49 14.58 52.58 11 57 11C59.21 11 61.21 11.9 62.66 13.34C64.1 14.79 65 16.79 65 19V66.43C60.82 67.32 57.14 69.59 54.49 72.75C53.06 74.43 51.93 76.36 51.15 78.46" stroke="#E6E7EE" stroke-width="2" stroke-linecap="round" stroke-linejoin="round"/>
<path d="M33 47.88V9C33 4.58 36.58 1 41 1C43.21 1 45.21 1.9 46.66 3.34C48.1 4.79 49 6.79 49 9L48.66 47.88" fill="#31344B"/>
<path d="M33 47.88V9C33 4.58 36.58 1 41 1C43.21 1 45.21 1.9 46.66 3.34C48.1 4.79 49 6.79 49 9L48.66 47.88" stroke="#E6E7EE" stroke-width="2" stroke-linecap="round" stroke-linejoin="round"/>
<path d="M63.64 103.22C73.91 96.64 80.76 85.72 80.99 73.41C81 73.28 81 73.14 81 73V49C81 46.79 80.1 44.79 78.66 43.34C77.21 41.9 75.21 41 73 41C68.58 41 65 44.58 65 49V66.43C60.82 67.32 57.14 69.59 54.49 72.75C53.06 74.43 51.93 76.36 51.15 78.46C50.66 79.82 50.33 81.26 50.15 82.74" fill="#31344B"/>
<path d="M63.64 103.22C73.91 96.64 80.76 85.72 80.99 73.41C81 73.28 81 73.14 81 73V49C81 46.79 80.1 44.79 78.66 43.34C77.21 41.9 75.21 41 73 41C68.58 41 65 44.58 65 49V66.43C60.82 67.32 57.14 69.59 54.49 72.75C53.06 74.43 51.93 76.36 51.15 78.46C50.66 79.82 50.33 81.26 50.15 82.74" stroke="#E6E7EE" stroke-width="2" stroke-linecap="round" stroke-linejoin="round"/>
</svg>
