<svg width="84" height="94" viewBox="0 0 84 94" fill="none" xmlns="http://www.w3.org/2000/svg">
<path d="M79.39 30.38H20.39V47.38H79.39V30.38Z" fill="#31344B" stroke="#E6E7EE" stroke-width="2" stroke-miterlimit="10"/>
<path d="M40.34 13.55V31.54H25.07C22.83 31.54 20.99 33.26 20.81 35.45H20.79V13.55C20.79 7.42996 25.17 2.45996 30.56 2.45996C33.26 2.45996 35.7 3.69996 37.47 5.70996C39.24 7.71996 40.33 10.49 40.33 13.55H40.34Z" fill="#31344B" stroke="#E6E7EE" stroke-width="2" stroke-miterlimit="10"/>
<path d="M59.89 10.77V31.54H40.34V10.77C40.34 5.37 44.72 1 50.11 1C52.81 1 55.25 2.09 57.02 3.86C58.79 5.63 59.88 8.07 59.88 10.77H59.89Z" fill="#31344B" stroke="#E6E7EE" stroke-width="2" stroke-miterlimit="10"/>
<path d="M1.12 39.6C1.12 39.6 1 53 1 53.04C1.07 74.64 19.31 92.14 41.81 92.14C64.31 92.14 82.55 74.65 82.62 53.04C82.58 49.18 81.41 42.41 79.44 39.53" fill="#31344B"/>
<path d="M1.12 39.6C1.12 39.6 1 53 1 53.04C1.07 74.64 19.31 92.14 41.81 92.14C64.31 92.14 82.55 74.65 82.62 53.04C82.58 49.18 81.41 42.41 79.44 39.53" stroke="#E6E7EE" stroke-width="2" stroke-miterlimit="10"/>
<path d="M79.44 15.49V39.53C79.18 39.15 78.9 38.77 78.61 38.41C75.26 34.22 70.1 31.54 64.32 31.54H59.89V15.49C59.89 9.10004 64.27 3.92004 69.66 3.92004C72.36 3.92004 74.8 5.22004 76.57 7.31004C78.34 9.40004 79.43 12.3 79.43 15.49H79.44Z" fill="#31344B" stroke="#E6E7EE" stroke-width="2" stroke-miterlimit="10"/>
<path d="M20.81 35.45C20.8 35.57 20.79 35.7 20.79 35.82V38.92C20.79 46.72 27.11 53.04 34.91 53.04H52.54C53.46 52.88 57.34 53.16 58.3 53.16" fill="#31344B"/>
<path d="M20.81 35.45C20.8 35.57 20.79 35.7 20.79 35.82V38.92C20.79 46.72 27.11 53.04 34.91 53.04H52.54C53.46 52.88 57.34 53.16 58.3 53.16" stroke="#E6E7EE" stroke-width="2" stroke-miterlimit="10"/>
<path d="M39.75 75.53C39.01 73.62 38.64 71.58 38.64 69.53C38.64 61.31 44.69 54.39 52.55 53.04" fill="#31344B"/>
<path d="M39.75 75.53C39.01 73.62 38.64 71.58 38.64 69.53C38.64 61.31 44.69 54.39 52.55 53.04" stroke="#E6E7EE" stroke-width="2" stroke-miterlimit="10"/>
<path d="M20.67 26.3399V38.0699C20.67 43.4699 16.29 47.8399 10.9 47.8399C5.51 47.8399 1.12 43.4699 1.12 38.0699V26.3399C1.12 20.9399 5.5 16.5699 10.89 16.5699C13.59 16.5699 16.03 17.6599 17.8 19.4299C19.57 21.1999 20.66 23.6399 20.66 26.3399H20.67Z" fill="#31344B" stroke="#E6E7EE" stroke-width="2" stroke-miterlimit="10"/>
</svg>
