<svg width="84" height="94" viewBox="0 0 84 94" fill="none" xmlns="http://www.w3.org/2000/svg">
<path d="M79.39 30.38H20.39V47.38H79.39V30.38Z" fill="#A91E2C" stroke="#E6E7EE" stroke-width="2" stroke-miterlimit="10"/>
<path d="M40.34 13.55V31.54H25.07C22.83 31.54 20.99 33.26 20.81 35.45H20.79V13.55C20.79 7.43002 25.17 2.46002 30.56 2.46002C33.26 2.46002 35.7 3.70002 37.47 5.71002C39.24 7.72002 40.33 10.49 40.33 13.55H40.34Z" fill="#A91E2C" stroke="#E6E7EE" stroke-width="2" stroke-miterlimit="10"/>
<path d="M59.89 10.77V31.54H40.34V10.77C40.34 5.37 44.72 1 50.11 1C52.81 1 55.25 2.09 57.02 3.86C58.79 5.63 59.88 8.07 59.88 10.77H59.89Z" fill="#A91E2C" stroke="#E6E7EE" stroke-width="2" stroke-miterlimit="10"/>
<path d="M1.12 39.6C1.12 39.6 1 53 1 53.04C1.07 74.64 19.31 92.14 41.81 92.14C64.31 92.14 82.55 74.65 82.62 53.04C82.58 49.18 81.41 42.41 79.44 39.53" fill="#A91E2C"/>
<path d="M1.12 39.6C1.12 39.6 1 53 1 53.04C1.07 74.64 19.31 92.14 41.81 92.14C64.31 92.14 82.55 74.65 82.62 53.04C82.58 49.18 81.41 42.41 79.44 39.53" stroke="#E6E7EE" stroke-width="2" stroke-miterlimit="10"/>
<path d="M79.44 15.49V39.53C79.18 39.15 78.9 38.77 78.61 38.41C75.26 34.22 70.1 31.54 64.32 31.54H59.89V15.49C59.89 9.09998 64.27 3.91998 69.66 3.91998C72.36 3.91998 74.8 5.21998 76.57 7.30998C78.34 9.39998 79.43 12.3 79.43 15.49H79.44Z" fill="#A91E2C" stroke="#E6E7EE" stroke-width="2" stroke-miterlimit="10"/>
<path d="M20.81 35.45C20.8 35.57 20.79 35.7 20.79 35.82V38.92C20.79 46.72 27.11 53.04 34.91 53.04H52.54C53.46 52.88 57.34 53.16 58.3 53.16" fill="#A91E2C"/>
<path d="M20.81 35.45C20.8 35.57 20.79 35.7 20.79 35.82V38.92C20.79 46.72 27.11 53.04 34.91 53.04H52.54C53.46 52.88 57.34 53.16 58.3 53.16" stroke="#E6E7EE" stroke-width="2" stroke-miterlimit="10"/>
<path d="M39.75 75.53C39.01 73.62 38.64 71.58 38.64 69.53C38.64 61.31 44.69 54.39 52.55 53.04" fill="#A91E2C"/>
<path d="M39.75 75.53C39.01 73.62 38.64 71.58 38.64 69.53C38.64 61.31 44.69 54.39 52.55 53.04" stroke="#E6E7EE" stroke-width="2" stroke-miterlimit="10"/>
<path d="M20.67 26.34V38.07C20.67 43.47 16.29 47.84 10.9 47.84C5.51 47.84 1.12 43.47 1.12 38.07V26.34C1.12 20.94 5.5 16.57 10.89 16.57C13.59 16.57 16.03 17.66 17.8 19.43C19.57 21.2 20.66 23.64 20.66 26.34H20.67Z" fill="#A91E2C" stroke="#E6E7EE" stroke-width="2" stroke-miterlimit="10"/>
</svg>
