<svg width="83" height="111" viewBox="0 0 83 111" fill="none" xmlns="http://www.w3.org/2000/svg">
<path d="M39.5 66.631L78 70.631C78 94.221 60.62 109.631 39.5 109.631C18.38 109.631 1 90.221 1 66.631H39.5Z" fill="#A91E2C" stroke="#E6E7EE" stroke-width="2" stroke-miterlimit="10"/>
<path d="M21 51.631C21 46.1082 16.5228 41.631 11 41.631C5.47715 41.631 1 46.1082 1 51.631V67.631C1 73.1539 5.47715 77.631 11 77.631C16.5228 77.631 21 73.1539 21 67.631V51.631Z" fill="#A91E2C" stroke="#E6E7EE" stroke-width="2" stroke-miterlimit="10"/>
<path d="M81.25 10.991C81.25 11.571 81.2 12.151 81.1 12.741L72.59 60.991C71.63 66.431 66.45 70.061 61.01 69.111C58.26 68.621 55.97 67.051 54.5 64.911C53.03 67.051 50.74 68.621 47.99 69.111C42.55 70.061 37.37 66.431 36.41 60.991L27.9 12.741C26.94 7.30103 30.57 2.11103 36.01 1.15103C36.59 1.05103 37.17 1.00103 37.75 1.00103C42.51 1.00103 46.73 4.41104 47.59 9.27104L54.5 48.451L61.41 9.27104C62.37 3.83104 67.55 0.201035 72.99 1.15103C77.84 2.01103 81.25 6.23103 81.25 10.991V10.991Z" fill="#A91E2C" stroke="#E6E7EE" stroke-width="2" stroke-miterlimit="10"/>
<path d="M41 45.631C41 40.1082 36.5228 35.631 31 35.631C25.4772 35.631 21 40.1082 21 45.631V64.631C21 70.1539 25.4772 74.631 31 74.631C36.5228 74.631 41 70.1539 41 64.631V45.631Z" fill="#A91E2C" stroke="#E6E7EE" stroke-width="2" stroke-miterlimit="10"/>
<path d="M39.17 96.631C38.4 94.901 38 93.021 38 91.131C38 83.721 44.09 77.631 51.5 77.631H35.36C27.43 77.631 21 71.201 21 63.271V62.271C21 59.711 23.08 57.631 25.64 57.631H66.08C72.66 57.631 78 62.971 78 69.551L77.97 71.211" fill="#A91E2C"/>
<path d="M39.17 96.631C38.4 94.901 38 93.021 38 91.131C38 83.721 44.09 77.631 51.5 77.631H35.36C27.43 77.631 21 71.201 21 63.271V62.271C21 59.711 23.08 57.631 25.64 57.631H66.08C72.66 57.631 78 62.971 78 69.551L77.97 71.211" stroke="#E6E7EE" stroke-width="2" stroke-miterlimit="10" stroke-linecap="round"/>
</svg>
